<?xml version="1.0" encoding="utf-8"?>
<!-- Generator: Adobe Illustrator 16.0.0, SVG Export Plug-In . SVG Version: 6.00 Build 0)  -->
<!DOCTYPE svg PUBLIC "-//W3C//DTD SVG 1.1//EN" "http://www.w3.org/Graphics/SVG/1.1/DTD/svg11.dtd">
<svg version="1.1" id="Layer_1" xmlns:sketch="http://www.bohemiancoding.com/sketch/ns"
	 xmlns="http://www.w3.org/2000/svg" xmlns:xlink="http://www.w3.org/1999/xlink" x="0px" y="0px" width="24px" height="25px"
	 viewBox="0 0 24 25" enable-background="new 0 0 24 25" xml:space="preserve">
<title>googleplus</title>
<desc>Created with Sketch.</desc>
<g id="Page-1" sketch:type="MSPage">
	<g id="googleplus" transform="translate(0.000000, 2.289669)" sketch:type="MSLayerGroup">
		<path id="Shape" sketch:type="MSShapeGroup" fill="#DD4B39" d="M8.572,9.424c0-1.274,2.837-1.644,2.837-4.638
			c0-1.796-0.168-2.88-1.599-3.517c0-0.446,2.527-0.153,2.527-0.985H6.801c0,0-5.605,0.136-5.605,4.825c0,4.689,4.9,4.146,4.9,4.146
			v1.188c0,0.479,0.657,0.318,0.739,1.291c-0.331,0-6.809-0.169-6.809,4.077c0,4.247,5.708,4.044,5.708,4.044
			s6.602,0.298,6.602-4.978C12.337,11.718,8.572,10.699,8.572,9.424L8.572,9.424z M3.79,5.381C3.271,3.497,3.954,1.675,5.315,1.309
			S8.2,2.173,8.718,4.056C9.236,5.94,8.553,7.763,7.192,8.129C5.831,8.495,4.308,7.264,3.79,5.381L3.79,5.381z M6.625,18.499
			c-2.285,0.152-4.229-1.059-4.341-2.705c-0.113-1.646,1.647-3.105,3.932-3.258c2.286-0.153,4.23,1.057,4.343,2.703
			C10.671,16.888,8.91,18.347,6.625,18.499L6.625,18.499z M22.723,4.091v1.122h-3.854v3.804h-1.135V5.212h-3.851V4.091h3.851V0.283
			h1.135v3.808H22.723z"/>
	</g>
</g>
</svg>
