<?xml version="1.0" encoding="utf-8"?>
<!-- Generator: Adobe Illustrator 16.0.0, SVG Export Plug-In . SVG Version: 6.00 Build 0)  -->
<!DOCTYPE svg PUBLIC "-//W3C//DTD SVG 1.1//EN" "http://www.w3.org/Graphics/SVG/1.1/DTD/svg11.dtd">
<svg version="1.1" id="Layer_1" xmlns:sketch="http://www.bohemiancoding.com/sketch/ns"
	 xmlns="http://www.w3.org/2000/svg" xmlns:xlink="http://www.w3.org/1999/xlink" x="0px" y="0px" width="25px" height="24px"
	 viewBox="0 0 25 24" enable-background="new 0 0 25 24" xml:space="preserve">
<title>linkedin</title>
<desc>Created with Sketch.</desc>
<g id="Page-1" sketch:type="MSPage">
	<g id="linkedin" transform="translate(2.570313, 2.130792)" sketch:type="MSLayerGroup">
		<path id="Shape" sketch:type="MSShapeGroup" fill="#0976B4" d="M6.671,18.529h4.294v-7.008c0-0.375,0.027-0.75,0.141-1.019
			c0.312-0.75,1.019-1.527,2.203-1.527c1.555,0,2.176,1.151,2.176,2.838v6.713h4.293v-7.194c0-3.855-2.117-5.649-4.942-5.649
			c-2.315,0-3.333,1.258-3.897,2.114h0.028V5.98H6.671C6.727,7.157,6.671,18.529,6.671,18.529L6.671,18.529L6.671,18.529z
			 M4.295,18.529V5.98H0.002v12.549H4.295L4.295,18.529z M2.148,4.266c1.497,0,2.429-0.964,2.429-2.168
			c-0.028-1.232-0.931-2.169-2.4-2.169c-1.469,0-2.429,0.938-2.429,2.168c0,1.204,0.932,2.168,2.373,2.168L2.148,4.266L2.148,4.266z
			"/>
	</g>
</g>
</svg>
