<?xml version="1.0" encoding="UTF-8" standalone="no"?>
<svg width="24px" height="25px" viewBox="0 0 24 25" version="1.1" xmlns="http://www.w3.org/2000/svg" xmlns:xlink="http://www.w3.org/1999/xlink" xmlns:sketch="http://www.bohemiancoding.com/sketch/ns">
    <!-- Generator: Sketch 3.0.4 (8054) - http://www.bohemiancoding.com/sketch -->
    <title>paypal</title>
    <desc>Created with Sketch.</desc>
    <defs></defs>
    <g id="Page-1" stroke="none" stroke-width="1" fill="none" fill-rule="evenodd" sketch:type="MSPage">
        <g id="paypal" sketch:type="MSLayerGroup" transform="translate(0.206425, 0.607422)" fill="#3D3D3D">
            <path d="M15.3559,10.2420255 C14.3090906,10.9959318 12.858567,11.3739673 10.9748022,11.3739673 L10.1233468,11.3739673 C9.37330323,11.3739673 8.89981354,10.7880382 9.06511311,10.0679006 L10.110165,5.6299233 C10.2692252,4.91541373 11.0178626,4.32186512 11.7684335,4.3288786 L12.9042639,4.32186512 C14.2315817,4.32186512 15.2407791,4.54595028 15.9214864,4.99091692 C16.5920877,5.42428101 16.9329687,6.10831223 16.9209293,7.02811776 C16.9407899,8.4131511 16.4078064,9.48560816 15.3559,10.2420255 M22.8528202,3.40214618 C22.4212485,2.57265009 21.7746381,1.8990958 20.9491069,1.39074804 C20.0928182,0.869758687 19.0960995,0.511031933 17.9352237,0.29447977 C16.7669661,0.0883179553 15.4026514,-0.0128147621 13.8370069,-0.0268417315 L6.58913461,-0.0218197301 C5.83592745,-0.0128147621 5.09818692,0.56921788 4.92401161,1.28268842 L0.0372605105,22.2165548 C-0.131202694,22.9323632 0.339387008,23.5243533 1.08943054,23.5243533 L4.5616883,23.5243533 C5.31234698,23.5243533 6.05632689,22.9480353 6.22479009,22.2165548 L7.42160824,17.1357614 C7.58119571,16.4259275 8.32333017,15.8382667 9.07592217,15.8382667 L10.0682469,15.8382667 C14.3148027,15.8336777 17.6079639,14.9776862 19.9752366,13.2648374 C22.3385548,11.5549325 23.5204336,9.28879765 23.5147215,6.48617454 C23.5203457,5.25483175 23.3043402,4.22480195 22.8528202,3.40214618" id="Shape" sketch:type="MSShapeGroup"></path>
        </g>
    </g>
</svg>