<?xml version="1.0" encoding="UTF-8" standalone="no"?>
<svg width="25px" height="25px" viewBox="0 0 25 25" version="1.1" xmlns="http://www.w3.org/2000/svg" xmlns:xlink="http://www.w3.org/1999/xlink" xmlns:sketch="http://www.bohemiancoding.com/sketch/ns">
    <!-- Generator: Sketch 3.0.4 (8054) - http://www.bohemiancoding.com/sketch -->
    <title>phone</title>
    <desc>Created with Sketch.</desc>
    <defs></defs>
    <g id="Page-1" stroke="none" stroke-width="1" fill="none" fill-rule="evenodd" sketch:type="MSPage">
        <g id="phone" sketch:type="MSLayerGroup" transform="translate(1.552465, 0.607422)" fill="#3D3D3D">
            <path d="M16.1239848,23.4001819 C15.2255248,23.1646674 14.4063408,22.6646519 12.6413134,21.3195015 C10.8617066,19.9571404 8.01779837,17.6599678 5.80718593,15.0539087 C3.59566228,12.446038 2.03201391,9.56007897 1.19642792,7.79190822 C0.358108281,6.02011416 0.212313561,5.30722974 0.195000438,4.51463271 C0.1822434,3.77457353 0.269720232,2.89773476 0.880235621,2.05803481 C1.4524799,1.26543778 2.47304294,0.536248508 3.21477357,0.22555047 C4.04033617,-0.126815526 4.58980002,0.00543495109 4.9907355,0.149461155 C5.37435786,0.290769884 5.66321365,0.448383465 6.08510712,0.836982469 C6.47966408,1.20474749 7.02366063,1.79715716 7.46924574,2.41764741 C7.92120937,3.03723184 8.27476157,3.68489684 8.51623407,4.2374502 C8.76226266,4.79543852 8.90167886,5.28458411 8.92992659,5.80362194 C8.95452945,6.31903647 8.8606741,6.96217235 8.28569617,7.445883 C7.82188672,7.834482 7.00816994,8.11981693 6.66008505,8.31728682 C6.59174377,8.35623731 6.55256144,8.38341206 6.51702398,8.41783342 C6.4969772,8.52653244 6.51337911,8.7086033 6.69106642,9.13071784 C7.07924486,10.0428838 8.03602271,11.6489118 9.25887593,12.969605 C10.4689721,14.2912039 11.9496997,15.3292796 12.8991878,15.9878145 C13.6427409,16.497794 13.9935595,16.7342144 14.1985833,16.8492542 L14.3607799,16.9253435 L14.5011073,16.7749766 C14.5730935,16.6889232 14.6769722,16.5675426 14.8428137,16.3791309 C15.1307583,16.0593747 15.7057362,15.4243912 16.5176305,15.2749301 C17.3313473,15.135433 18.2270736,15.4968572 18.9779164,16.0186125 C19.748806,16.5566727 20.4549992,17.3257183 20.9825938,18.1364318 C21.4874081,18.9254055 21.9357268,19.9480822 21.4946978,20.9843462 C21.0837389,21.9463325 19.9556523,22.7769742 18.9924959,23.1809722 C17.9737553,23.6148625 17.0215335,23.638414 16.1239848,23.4001819 L16.1239848,23.4001819 Z" id="Shape" sketch:type="MSShapeGroup"></path>
        </g>
    </g>
</svg>