<?xml version="1.0" encoding="utf-8"?>
<!-- Generator: Adobe Illustrator 16.0.0, SVG Export Plug-In . SVG Version: 6.00 Build 0)  -->
<!DOCTYPE svg PUBLIC "-//W3C//DTD SVG 1.1//EN" "http://www.w3.org/Graphics/SVG/1.1/DTD/svg11.dtd">
<svg version="1.1" id="Layer_1" xmlns:sketch="http://www.bohemiancoding.com/sketch/ns"
	 xmlns="http://www.w3.org/2000/svg" xmlns:xlink="http://www.w3.org/1999/xlink" x="0px" y="0px" width="25px" height="24px"
	 viewBox="0 0 25 24" enable-background="new 0 0 25 24" xml:space="preserve">
<title>rss</title>
<desc>Created with Sketch.</desc>
<g id="Page-1" sketch:type="MSPage">
	<g id="rss" transform="translate(3.056775, 2.130792)" sketch:type="MSLayerGroup">
		<path id="Shape" sketch:type="MSShapeGroup" fill="#FFFFFF" d="M0.369,3.575c8.368,0,15.176,6.65,15.176,14.826h3.618
			c0-10.111-8.433-18.339-18.794-18.339V3.575L0.369,3.575z M0.365,9.806c2.348,0,4.555,0.891,6.214,2.51
			c1.662,1.623,2.576,3.781,2.576,6.078h3.618c0-6.676-5.566-12.104-12.408-12.104V9.806L0.365,9.806z M5.373,15.943
			c0,1.346-1.123,2.436-2.506,2.436c-1.384,0-2.506-1.09-2.506-2.436c0-1.344,1.122-2.436,2.506-2.436
			C4.251,13.51,5.373,14.6,5.373,15.943z"/>
	</g>
</g>
</svg>
