<?xml version="1.0" encoding="utf-8"?>
<!-- Generator: Adobe Illustrator 16.0.0, SVG Export Plug-In . SVG Version: 6.00 Build 0)  -->
<!DOCTYPE svg PUBLIC "-//W3C//DTD SVG 1.1//EN" "http://www.w3.org/Graphics/SVG/1.1/DTD/svg11.dtd">
<svg version="1.1" id="Layer_1" xmlns:sketch="http://www.bohemiancoding.com/sketch/ns"
	 xmlns="http://www.w3.org/2000/svg" xmlns:xlink="http://www.w3.org/1999/xlink" x="0px" y="0px" width="25px" height="25px"
	 viewBox="0 0 25 25" enable-background="new 0 0 25 25" xml:space="preserve">
<title>twitter</title>
<desc>Created with Sketch.</desc>
<g id="Page-1" sketch:type="MSPage">
	<g id="twitter" transform="translate(0.719962, 3.130792)" sketch:type="MSLayerGroup">
		<path id="Shape" sketch:type="MSShapeGroup" fill="#55ACEE" d="M22.731,2.305c-0.836,0.367-1.733,0.615-2.676,0.726
			c0.962-0.57,1.701-1.474,2.049-2.55c-0.9,0.528-1.898,0.912-2.959,1.119c-0.85-0.896-2.061-1.456-3.4-1.456
			c-2.574,0-4.66,2.063-4.66,4.609c0,0.361,0.041,0.713,0.121,1.051C7.333,5.611,3.9,3.776,1.602,0.987
			C1.201,1.668,0.971,2.46,0.971,3.305c0,1.599,0.822,3.01,2.073,3.837C2.281,7.118,1.562,6.91,0.934,6.565c0,0.019,0,0.039,0,0.058
			c0,2.233,1.606,4.096,3.737,4.52c-0.391,0.105-0.802,0.162-1.228,0.162c-0.3,0-0.592-0.029-0.876-0.082
			c0.593,1.83,2.313,3.164,4.353,3.201c-1.595,1.236-3.604,1.973-5.787,1.973c-0.376,0-0.747-0.021-1.111-0.064
			c2.062,1.308,4.511,2.071,7.142,2.071c8.57,0,13.257-7.024,13.257-13.116c0-0.2-0.006-0.398-0.014-0.596
			C21.317,4.041,22.106,3.23,22.731,2.305L22.731,2.305z"/>
	</g>
</g>
</svg>
