<?xml version="1.0" encoding="utf-8"?>
<!-- Generator: Adobe Illustrator 16.0.0, SVG Export Plug-In . SVG Version: 6.00 Build 0)  -->
<!DOCTYPE svg PUBLIC "-//W3C//DTD SVG 1.1//EN" "http://www.w3.org/Graphics/SVG/1.1/DTD/svg11.dtd">
<svg version="1.1" id="Layer_1" xmlns:sketch="http://www.bohemiancoding.com/sketch/ns"
	 xmlns="http://www.w3.org/2000/svg" xmlns:xlink="http://www.w3.org/1999/xlink" x="0px" y="0px" width="24px" height="25px"
	 viewBox="0 0 24 25" enable-background="new 0 0 24 25" xml:space="preserve">
<title>youtube</title>
<desc>Created with Sketch.</desc>
<path fill="#E52D27" d="M23.723,7.717c0,0-0.234-1.648-0.951-2.374c-0.91-0.953-1.93-0.958-2.396-1.014
	c-3.349-0.242-8.369-0.242-8.369-0.242h-0.01c0,0-5.021,0-8.369,0.242C3.158,4.385,2.139,4.39,1.229,5.343
	C0.512,6.068,0.278,7.717,0.278,7.717s-0.239,1.936-0.239,3.871v1.814c0,1.937,0.239,3.873,0.239,3.873s0.233,1.646,0.951,2.375
	c0.909,0.951,2.104,0.922,2.637,1.021C5.78,20.855,12,20.913,12,20.913s5.027-0.008,8.374-0.25c0.468-0.056,1.487-0.062,2.397-1.013
	c0.717-0.729,0.951-2.375,0.951-2.375s0.236-1.938,0.236-3.873v-1.814C23.961,9.652,23.723,7.717,23.723,7.717z M9.53,15.604V8.882
	l6.463,3.372L9.53,15.604z"/>
</svg>
