<svg xmlns="http://www.w3.org/2000/svg" width="27" height="25.589"><path d="M8.028 0l-8.028 5 5.5 4.611 8-5.194-5.472-4.417zm10.326 21.223c-.143 0-.285-.048-.401-.144l-4.453-3.696-4.453 3.696c-.116.096-.259.144-.401.144-.12 0-.239-.033-.344-.102l-3.299-2.156v1.272l8.497 5.352 8.496-5.352v-1.272l-3.299 2.156c-.104.068-.223.102-.343.102zm8.646-16.223l-8.029-5-5.471 4.417 7.999 5.194 5.501-4.611zm-13.5 9.611l4.961 4.117 7.933-5.187-4.894-3.93-8 5zm-4.961 4.117l4.961-4.117-8-5-4.894 3.93 7.933 5.187z" fill="#fff"/></svg>