<svg xmlns="http://www.w3.org/2000/svg" width="25" height="25"><path d="M22.464 4.993c.396.745.593 1.67.593 2.778 0 2.519-1.062 4.55-3.182 6.093-2.122 1.544-5.085 2.314-8.892 2.314h-.891c-.671 0-1.34.527-1.491 1.169l-1.071 4.563c-.149.645-.82 1.172-1.489 1.172h-1.95l-.174.745c-.151.646.273 1.173.943 1.173h3.124c.67 0 1.341-.527 1.489-1.172l1.071-4.563c.151-.642.82-1.169 1.491-1.169h.891c3.807 0 6.771-.77 8.892-2.314 2.12-1.542 3.182-3.573 3.182-6.092 0-1.108-.197-2.033-.593-2.778-.395-.74-.968-1.346-1.716-1.807l-.227-.112zm-16.878 14.998l1.071-4.563c.151-.642.82-1.169 1.49-1.169h.891c3.808 0 6.771-.77 8.892-2.314 2.121-1.543 3.182-3.574 3.182-6.093 0-1.108-.196-2.033-.593-2.778-.394-.74-.968-1.346-1.715-1.807-.766-.468-1.666-.794-2.708-.984-1.044-.188-2.266-.283-3.67-.283h-6.505c-.672 0-1.341.524-1.493 1.169l-4.397 18.822c-.152.646.273 1.172.942 1.172h3.124c.669-.001 1.341-.527 1.489-1.172zm2.551-10.921l.939-3.995c.152-.643.823-1.17 1.49-1.17h1.023c1.192 0 2.095.2 2.701.6.605.396.909 1.004.909 1.83 0 1.25-.472 2.214-1.41 2.891-.939.676-2.244 1.017-3.93 1.017h-.775c-.67.001-1.094-.528-.947-1.173z" fill="#fff"/></svg>